<?xml version="1.0" encoding="UTF-8" standalone="no"?>
<svg
   width="128"
   height="128"
   version="1.1"
   id="svg6"
   sodipodi:docname="icon.svg"
   inkscape:version="1.4.2 (ebf0e940d0, 2025-05-08)"
   xmlns:inkscape="http://www.inkscape.org/namespaces/inkscape"
   xmlns:sodipodi="http://sodipodi.sourceforge.net/DTD/sodipodi-0.dtd"
   xmlns="http://www.w3.org/2000/svg"
   xmlns:svg="http://www.w3.org/2000/svg">
  <defs
     id="defs6" />
  <sodipodi:namedview
     id="namedview6"
     pagecolor="#505050"
     bordercolor="#eeeeee"
     borderopacity="1"
     inkscape:showpageshadow="0"
     inkscape:pageopacity="0"
     inkscape:pagecheckerboard="0"
     inkscape:deskcolor="#505050"
     inkscape:zoom="4.3420776"
     inkscape:cx="48.594249"
     inkscape:cy="87.746014"
     inkscape:window-width="2560"
     inkscape:window-height="995"
     inkscape:window-x="0"
     inkscape:window-y="0"
     inkscape:window-maximized="1"
     inkscape:current-layer="svg6" />
  <path
     style="fill:none;stroke:#009db9;stroke-width:10;stroke-linecap:round;stroke-linejoin:bevel;stroke-miterlimit:1;stroke-opacity:1;fill-opacity:1"
     id="path6"
     sodipodi:type="arc"
     sodipodi:cx="68.834221"
     sodipodi:cy="-64.001373"
     sodipodi:rx="41.224506"
     sodipodi:ry="41.224506"
     sodipodi:start="0.6990186"
     sodipodi:end="5.6125014"
     sodipodi:arc-type="arc"
     d="M 100.39051,-37.474774 A 41.224506,41.224506 0 0 1 54.443423,-25.370235 41.224506,41.224506 0 0 1 27.613852,-64.585396 41.224506,41.224506 0 0 1 55.543655,-103.02471 41.224506,41.224506 0 0 1 101.12937,-89.623307"
     sodipodi:open="true"
     transform="rotate(90)" />
  <path
     style="fill:none;stroke:#009db9;stroke-width:10;stroke-linecap:round;stroke-linejoin:bevel;stroke-miterlimit:1;stroke-opacity:1;paint-order:stroke markers fill"
     d="M 64,91.908892 V 123"
     id="path7" />
  <path
     style="fill:none;fill-opacity:1;stroke:#009db9;stroke-width:5;stroke-linecap:round;stroke-linejoin:bevel;stroke-miterlimit:1;stroke-opacity:1;paint-order:stroke markers fill;stroke-dasharray:none"
     id="path8"
     sodipodi:type="arc"
     sodipodi:cx="63.999611"
     sodipodi:cy="-64.000336"
     sodipodi:rx="6.9091349"
     sodipodi:ry="6.9091349"
     sodipodi:start="5.6199853"
     sodipodi:end="5.5651517"
     sodipodi:arc-type="arc"
     d="m 69.44419,-68.253887 a 6.9091349,6.9091349 0 0 1 -1.116793,9.639312 6.9091349,6.9091349 0 0 1 -9.653715,-0.984554 6.9091349,6.9091349 0 0 1 0.852128,-9.666304 6.9091349,6.9091349 0 0 1 9.677076,0.719543"
     sodipodi:open="true"
     transform="rotate(90)" />
</svg>
